<?xml version="1.0" standalone="no"?>
<!DOCTYPE svg PUBLIC "-//W3C//DTD SVG 20010904//EN"
 "http://www.w3.org/TR/2001/REC-SVG-20010904/DTD/svg10.dtd">
<svg version="1.0" xmlns="http://www.w3.org/2000/svg"
 width="43.000000pt" height="39.000000pt" viewBox="0 0 43.000000 39.000000"
 preserveAspectRatio="xMidYMid meet">

<g transform="translate(0.000000,39.000000) scale(0.100000,-0.100000)"
fill="#000000" stroke="none">
<path d="M0 195 l0 -195 215 0 215 0 0 195 0 195 -215 0 -215 0 0 -195z m188
153 c13 -13 16 -85 6 -112 -8 -20 -103 -23 -122 -4 -19 19 -15 98 6 114 21 17
94 18 110 2z m170 0 c13 -13 16 -85 6 -112 -8 -20 -103 -23 -122 -4 -18 18
-15 88 5 110 19 21 92 25 111 6z m-170 -170 c13 -13 16 -85 6 -112 -8 -20
-103 -23 -122 -4 -19 19 -15 98 6 114 21 17 94 18 110 2z m90 -21 c2 -12 -3
-17 -17 -17 -12 0 -21 6 -21 13 0 31 32 34 38 4z m80 0 c2 -10 -3 -17 -12 -17
-10 0 -16 9 -16 21 0 24 23 21 28 -4z m-38 -43 c0 -8 -9 -14 -20 -14 -22 0
-26 10 -8 28 13 13 28 7 28 -14z m-42 -41 c-2 -10 -10 -18 -18 -18 -8 0 -16 8
-18 18 -2 12 3 17 18 17 15 0 20 -5 18 -17z m80 0 c-4 -22 -22 -20 -26 1 -2
10 3 16 13 16 10 0 15 -7 13 -17z"/>
<path d="M97 323 c-4 -3 -7 -21 -7 -40 0 -32 1 -33 40 -33 l40 0 0 40 c0 39
-1 40 -33 40 -19 0 -37 -3 -40 -7z m51 -36 c2 -12 -3 -17 -17 -17 -12 0 -21 6
-21 13 0 31 32 34 38 4z"/>
<path d="M267 323 c-4 -3 -7 -21 -7 -40 0 -32 1 -33 40 -33 l40 0 0 40 c0 39
-1 40 -33 40 -19 0 -37 -3 -40 -7z m51 -36 c2 -12 -3 -17 -17 -17 -12 0 -21 6
-21 13 0 31 32 34 38 4z"/>
<path d="M94 146 c-3 -8 -4 -27 -2 -43 3 -25 7 -28 38 -28 34 0 35 1 38 43 l3
42 -36 0 c-21 0 -38 -6 -41 -14z m56 -32 c0 -8 -9 -14 -20 -14 -22 0 -28 26
-7 33 16 6 27 -1 27 -19z"/>
</g>
</svg>
