<?xml version="1.0" standalone="no"?>
<!DOCTYPE svg PUBLIC "-//W3C//DTD SVG 20010904//EN"
 "http://www.w3.org/TR/2001/REC-SVG-20010904/DTD/svg10.dtd">
<svg version="1.0" xmlns="http://www.w3.org/2000/svg"
 width="86.000000pt" height="81.000000pt" viewBox="0 0 86.000000 81.000000"
 preserveAspectRatio="xMidYMid meet">

<g transform="translate(0.000000,81.000000) scale(0.100000,-0.100000)"
fill="#000000" stroke="none">
<path d="M0 405 l0 -405 430 0 430 0 0 405 0 405 -430 0 -430 0 0 -405z m660
142 c0 -20 -40 -90 -69 -120 -24 -26 -25 -29 -8 -38 36 -21 97 -109 97 -141 0
-4 -22 -8 -48 -8 -46 0 -49 2 -70 39 -18 31 -67 71 -88 71 -2 0 -4 -24 -6 -52
l-3 -53 -46 1 c-55 0 -112 25 -157 68 -47 45 -92 149 -92 214 0 32 0 32 50 32
49 0 50 -1 50 -30 0 -49 39 -138 70 -160 l29 -21 3 103 3 103 48 3 47 3 0 -55
c0 -42 4 -56 14 -56 15 0 68 62 79 92 4 11 19 18 44 20 44 4 53 1 53 -15z"/>
</g>
</svg>
